<?xml version="1.0" encoding="UTF-8"?>
<!DOCTYPE svg PUBLIC "-//W3C//DTD SVG 1.1//EN" "http://www.w3.org/Graphics/SVG/1.1/DTD/svg11.dtd">
<svg version="1.2" width="262.5mm" height="371.25mm" viewBox="0 0 26250 37125" preserveAspectRatio="xMidYMid" fill-rule="evenodd" stroke-width="28.222" stroke-linejoin="round" xmlns="http://www.w3.org/2000/svg" xmlns:ooo="http://xml.openoffice.org/svg/export" xmlns:xlink="http://www.w3.org/1999/xlink" xmlns:presentation="http://sun.com/xmlns/staroffice/presentation" xmlns:smil="http://www.w3.org/2001/SMIL20/" xmlns:anim="urn:oasis:names:tc:opendocument:xmlns:animation:1.0" xml:space="preserve">
 <defs class="ClipPathGroup">
  <clipPath id="presentation_clip_path" clipPathUnits="userSpaceOnUse">
   <rect x="0" y="0" width="26250" height="37125"/>
  </clipPath>
  <clipPath id="presentation_clip_path_shrink" clipPathUnits="userSpaceOnUse">
   <rect x="26" y="37" width="26198" height="37051"/>
  </clipPath>
 </defs>
 <defs class="TextShapeIndex">
  <g ooo:slide="id1" ooo:id-list="id3 id4 id5 id6 id7 id8 id9 id10"/>
 </defs>
 <defs class="EmbeddedBulletChars">
  <g id="bullet-char-template-57356" transform="scale(0.00048828125,-0.00048828125)">
   <path d="M 580,1141 L 1163,571 580,0 -4,571 580,1141 Z"/>
  </g>
  <g id="bullet-char-template-57354" transform="scale(0.00048828125,-0.00048828125)">
   <path d="M 8,1128 L 1137,1128 1137,0 8,0 8,1128 Z"/>
  </g>
  <g id="bullet-char-template-10146" transform="scale(0.00048828125,-0.00048828125)">
   <path d="M 174,0 L 602,739 174,1481 1456,739 174,0 Z M 1358,739 L 309,1346 659,739 1358,739 Z"/>
  </g>
  <g id="bullet-char-template-10132" transform="scale(0.00048828125,-0.00048828125)">
   <path d="M 2015,739 L 1276,0 717,0 1260,543 174,543 174,936 1260,936 717,1481 1274,1481 2015,739 Z"/>
  </g>
  <g id="bullet-char-template-10007" transform="scale(0.00048828125,-0.00048828125)">
   <path d="M 0,-2 C -7,14 -16,27 -25,37 L 356,567 C 262,823 215,952 215,954 215,979 228,992 255,992 264,992 276,990 289,987 310,991 331,999 354,1012 L 381,999 492,748 772,1049 836,1024 860,1049 C 881,1039 901,1025 922,1006 886,937 835,863 770,784 769,783 710,716 594,584 L 774,223 C 774,196 753,168 711,139 L 727,119 C 717,90 699,76 672,76 641,76 570,178 457,381 L 164,-76 C 142,-110 111,-127 72,-127 30,-127 9,-110 8,-76 1,-67 -2,-52 -2,-32 -2,-23 -1,-13 0,-2 Z"/>
  </g>
  <g id="bullet-char-template-10004" transform="scale(0.00048828125,-0.00048828125)">
   <path d="M 285,-33 C 182,-33 111,30 74,156 52,228 41,333 41,471 41,549 55,616 82,672 116,743 169,778 240,778 293,778 328,747 346,684 L 369,508 C 377,444 397,411 428,410 L 1163,1116 C 1174,1127 1196,1133 1229,1133 1271,1133 1292,1118 1292,1087 L 1292,965 C 1292,929 1282,901 1262,881 L 442,47 C 390,-6 338,-33 285,-33 Z"/>
  </g>
  <g id="bullet-char-template-9679" transform="scale(0.00048828125,-0.00048828125)">
   <path d="M 813,0 C 632,0 489,54 383,161 276,268 223,411 223,592 223,773 276,916 383,1023 489,1130 632,1184 813,1184 992,1184 1136,1130 1245,1023 1353,916 1407,772 1407,592 1407,412 1353,268 1245,161 1136,54 992,0 813,0 Z"/>
  </g>
  <g id="bullet-char-template-8226" transform="scale(0.00048828125,-0.00048828125)">
   <path d="M 346,457 C 273,457 209,483 155,535 101,586 74,649 74,723 74,796 101,859 155,911 209,963 273,989 346,989 419,989 480,963 531,910 582,859 608,796 608,723 608,648 583,586 532,535 482,483 420,457 346,457 Z"/>
  </g>
  <g id="bullet-char-template-8211" transform="scale(0.00048828125,-0.00048828125)">
   <path d="M -4,459 L 1135,459 1135,606 -4,606 -4,459 Z"/>
  </g>
  <g id="bullet-char-template-61548" transform="scale(0.00048828125,-0.00048828125)">
   <path d="M 173,740 C 173,903 231,1043 346,1159 462,1274 601,1332 765,1332 928,1332 1067,1274 1183,1159 1299,1043 1357,903 1357,740 1357,577 1299,437 1183,322 1067,206 928,148 765,148 601,148 462,206 346,322 231,437 173,577 173,740 Z"/>
  </g>
 </defs>
 <defs class="TextEmbeddedBitmaps"/>
 <g>
  <g id="id2" class="Master_Slide">
   <g id="bg-id2" class="Background"/>
   <g id="bo-id2" class="BackgroundObjects"/>
  </g>
 </g>
 <g class="SlideGroup">
  <g>
   <g id="container-id1">
    <g id="id1" class="Slide" clip-path="url(#presentation_clip_path)">
     <g class="Page">
      <g class="com.sun.star.drawing.ClosedBezierShape">
       <g id="id3">
        <rect class="BoundingBox" stroke="none" fill="none" x="0" y="0" width="26252" height="35062"/>
        <path fill="rgb(0,0,0)" stroke="none" d="M 26228,9467 L 25703,6941 25703,1096 C 25703,491 25213,0 24607,0 L 1644,0 C 1038,0 548,491 548,1096 L 548,6941 23,9467 C 8,9540 0,9615 0,9690 L 0,28966 C 0,29059 12,29150 35,29240 L 548,31228 548,33965 C 548,34570 1038,35061 1643,35061 L 24607,35061 C 25213,35061 25703,34570 25703,33965 L 25703,31228 26216,29240 C 26239,29150 26251,29059 26251,28966 L 26251,9690 C 26251,9615 26243,9540 26228,9467 Z M 23512,2191 L 23512,5155 23414,5094 C 23061,4876 22614,4876 22261,5094 L 21068,5833 19878,5095 C 19524,4876 19076,4876 18723,5095 L 17534,5832 16345,5095 C 15991,4875 15543,4876 15189,5095 L 14002,5832 12814,5095 C 12460,4876 12012,4876 11659,5095 L 10470,5832 9281,5095 C 8928,4875 8480,4876 8126,5095 L 6939,5832 5751,5095 C 5397,4875 4949,4876 4595,5095 L 3408,5832 2739,5417 2739,2191 23512,2191 Z M 24060,28827 L 23547,30816 C 23524,30905 23512,30997 23512,31089 L 23512,32870 2739,32870 2739,31089 C 2739,30997 2727,30905 2704,30816 L 2191,28827 2191,9802 2586,7901 2831,8053 C 3185,8273 3633,8272 3987,8053 L 5173,7316 6362,8053 C 6715,8273 7163,8272 7517,8053 L 8704,7316 9892,8053 C 10246,8273 10694,8272 11047,8053 L 12236,7315 13425,8053 C 13779,8273 14227,8272 14581,8053 L 15767,7316 16956,8053 C 17310,8272 17758,8272 18111,8053 L 19300,7315 20490,8053 C 20843,8272 21290,8272 21644,8053 L 22837,7315 23647,7816 24060,9802 24060,28827 Z"/>
       </g>
      </g>
      <g class="com.sun.star.drawing.ClosedBezierShape">
       <g id="id4">
        <rect class="BoundingBox" stroke="none" fill="none" x="20794" y="29445" width="1920" height="1645"/>
        <path fill="rgb(0,0,0)" stroke="none" d="M 21890,29445 L 21616,29445 C 21162,29445 20794,29813 20794,30267 20794,30721 21162,31089 21616,31089 L 21890,31089 C 22344,31089 22712,30721 22712,30267 22712,29813 22344,29445 21890,29445 Z"/>
       </g>
      </g>
      <g class="com.sun.star.drawing.ClosedBezierShape">
       <g id="id5">
        <rect class="BoundingBox" stroke="none" fill="none" x="9083" y="29445" width="2231" height="1645"/>
        <path fill="rgb(0,0,0)" stroke="none" d="M 10491,29445 L 9905,29445 C 9451,29445 9083,29813 9083,30267 9083,30721 9451,31089 9905,31089 L 10491,31089 C 10945,31089 11313,30721 11313,30267 11313,29813 10945,29445 10491,29445 Z"/>
       </g>
      </g>
      <g class="com.sun.star.drawing.ClosedBezierShape">
       <g id="id6">
        <rect class="BoundingBox" stroke="none" fill="none" x="6155" y="29445" width="2231" height="1645"/>
        <path fill="rgb(0,0,0)" stroke="none" d="M 7563,29445 L 6977,29445 C 6523,29445 6155,29813 6155,30267 6155,30721 6523,31089 6977,31089 L 7563,31089 C 8017,31089 8385,30721 8385,30267 8385,29813 8017,29445 7563,29445 Z"/>
       </g>
      </g>
      <g class="com.sun.star.drawing.ClosedBezierShape">
       <g id="id7">
        <rect class="BoundingBox" stroke="none" fill="none" x="17867" y="29445" width="2231" height="1645"/>
        <path fill="rgb(0,0,0)" stroke="none" d="M 19275,29445 L 18689,29445 C 18235,29445 17867,29813 17867,30267 17867,30721 18235,31089 18689,31089 L 19275,31089 C 19729,31089 20097,30721 20097,30267 20097,29813 19729,29445 19275,29445 Z"/>
       </g>
      </g>
      <g class="com.sun.star.drawing.ClosedBezierShape">
       <g id="id8">
        <rect class="BoundingBox" stroke="none" fill="none" x="12010" y="29445" width="2231" height="1645"/>
        <path fill="rgb(0,0,0)" stroke="none" d="M 13418,29445 L 12832,29445 C 12378,29445 12010,29813 12010,30267 12010,30721 12378,31089 12832,31089 L 13418,31089 C 13872,31089 14240,30721 14240,30267 14240,29813 13872,29445 13418,29445 Z"/>
       </g>
      </g>
      <g class="com.sun.star.drawing.ClosedBezierShape">
       <g id="id9">
        <rect class="BoundingBox" stroke="none" fill="none" x="14939" y="29445" width="2231" height="1645"/>
        <path fill="rgb(0,0,0)" stroke="none" d="M 16347,29445 L 15761,29445 C 15307,29445 14939,29813 14939,30267 14939,30721 15307,31089 15761,31089 L 16347,31089 C 16801,31089 17169,30721 17169,30267 17169,29813 16801,29445 16347,29445 Z"/>
       </g>
      </g>
      <g class="com.sun.star.drawing.ClosedBezierShape">
       <g id="id10">
        <rect class="BoundingBox" stroke="none" fill="none" x="3538" y="29445" width="1919" height="1645"/>
        <path fill="rgb(0,0,0)" stroke="none" d="M 4634,29445 L 4360,29445 C 3906,29445 3538,29813 3538,30267 3538,30721 3906,31089 4360,31089 L 4634,31089 C 5088,31089 5456,30721 5456,30267 5456,29813 5088,29445 4634,29445 Z"/>
       </g>
      </g>
     </g>
    </g>
   </g>
  </g>
 </g>
</svg>