<svg id="Capa_1" enable-background="new 0 0 512 512" height="512" viewBox="0 0 512 512" width="512" xmlns="http://www.w3.org/2000/svg"><g><path d="m136 497c0 8.284 6.716 15 15 15h210c8.284 0 15-6.716 15-15v-106c0-10.835-4.656-21.093-13.414-30 8.758-8.907 13.414-19.165 13.414-30s-4.656-21.093-13.414-30c8.758-8.907 13.414-19.165 13.414-30s-4.656-21.093-13.414-30c8.758-8.907 13.414-19.165 13.414-30v-30c0-36.219-25.81-66.524-60-73.493v-17.507c8.284 0 15-6.716 15-15v-60c0-8.284-6.716-15-15-15h-120c-8.284 0-15 6.716-15 15v60c0 8.284 6.716 15 15 15v17.507c-34.191 6.969-60 37.275-60 73.493v30c0 10.835 4.657 21.093 13.414 30-8.757 8.907-13.414 19.165-13.414 30s4.657 21.093 13.414 30c-8.757 8.907-13.414 19.165-13.414 30s4.657 21.093 13.414 30c-8.757 8.907-13.414 19.165-13.414 30zm75-467h90v30h-90zm-45 361c0-5.138 5.845-11.45 15.637-16.885 4.765-2.645 7.72-7.666 7.72-13.115s-2.956-10.47-7.72-13.115c-9.792-5.435-15.637-11.747-15.637-16.885s5.845-11.45 15.637-16.885c4.765-2.645 7.72-7.666 7.72-13.115s-2.956-10.47-7.72-13.115c-9.792-5.435-15.637-11.747-15.637-16.885s5.845-11.45 15.637-16.885c4.765-2.645 7.72-7.666 7.72-13.115s-2.956-10.47-7.72-13.115c-9.792-5.435-15.637-11.747-15.637-16.885v-30c0-24.813 20.187-45 45-45 8.284 0 15-6.716 15-15v-31h60v31c0 8.284 6.716 15 15 15 24.813 0 45 20.187 45 45v30c0 5.138-5.846 11.45-15.636 16.885-4.766 2.645-7.721 7.666-7.721 13.115s2.955 10.47 7.721 13.115c9.79 5.435 15.636 11.747 15.636 16.885s-5.846 11.45-15.636 16.885c-4.766 2.645-7.721 7.666-7.721 13.115s2.955 10.47 7.721 13.115c9.79 5.435 15.636 11.747 15.636 16.885s-5.846 11.45-15.636 16.885c-4.766 2.645-7.721 7.666-7.721 13.115s2.955 10.47 7.721 13.115c9.79 5.435 15.636 11.747 15.636 16.885v91h-180z"/></g></svg>