<?xml version="1.0" ?><!DOCTYPE svg  PUBLIC '-//W3C//DTD SVG 1.1//EN'  'http://www.w3.org/Graphics/SVG/1.1/DTD/svg11.dtd'><svg enable-background="new 0 0 512 512" height="512px" id="Layer_3" version="1.1" viewBox="0 0 512 512" width="512px" xml:space="preserve" xmlns="http://www.w3.org/2000/svg" xmlns:xlink="http://www.w3.org/1999/xlink"><g><path d="M345.9,388.8c0.1-0.2,0.2-0.4,0.3-0.7c0,0,0-0.1,0-0.1c0.1-0.2,0.2-0.4,0.2-0.6c0-0.1,0-0.1,0-0.2    c0.1-0.2,0.1-0.5,0.1-0.7c0,0,0,0,0,0c0-0.2,0-0.4,0-0.6V126.1c0-0.2,0-0.4,0-0.6c0,0,0,0,0,0c0-0.2-0.1-0.5-0.1-0.7    c0-0.1,0-0.1,0-0.2c-0.1-0.2-0.1-0.4-0.2-0.6c0,0,0-0.1,0-0.1c-0.1-0.2-0.2-0.5-0.3-0.7c0,0-0.1-0.1-0.1-0.1    c-0.1-0.2-0.2-0.4-0.4-0.5c0,0,0-0.1-0.1-0.1l-18.1-23c-1.1-1.4-2.9-2.3-4.7-2.3H189.5c-1.8,0-3.6,0.8-4.7,2.3l-18.1,23    c0,0,0,0.1-0.1,0.1c-0.1,0.2-0.3,0.4-0.4,0.5c0,0-0.1,0.1-0.1,0.1c-0.1,0.2-0.2,0.4-0.3,0.7c0,0,0,0.1,0,0.1    c-0.1,0.2-0.2,0.4-0.2,0.6c0,0.1,0,0.1,0,0.2c-0.1,0.2-0.1,0.5-0.1,0.7c0,0,0,0,0,0c0,0.2,0,0.4,0,0.6v154.9c0,0,0,0,0,0v104.8    c0,0.2,0,0.4,0,0.6c0,0,0,0,0,0c0,0.2,0.1,0.5,0.1,0.7c0,0.1,0,0.1,0,0.2c0.1,0.2,0.1,0.4,0.2,0.6c0,0,0,0.1,0,0.1    c0.1,0.2,0.2,0.5,0.3,0.7c0,0,0.1,0.1,0.1,0.1c0.1,0.2,0.2,0.4,0.4,0.5c0,0,0,0.1,0.1,0.1l18.1,23c1.1,1.4,2.9,2.3,4.7,2.3h133.1    c1.8,0,3.6-0.8,4.7-2.3l18.1-23c0,0,0-0.1,0.1-0.1c0.1-0.2,0.3-0.4,0.4-0.5C345.8,388.9,345.9,388.9,345.9,388.8z M177.3,222.4    c2.7-2.4,8.9-7.1,17.5-10c16.4-5.5,33.7-2.5,51.4,9.1c10.6,6.9,19.1,13.3,26.6,18.9c16.3,12.2,28,20.8,42.4,20.8    c5.8,0,12.1-1.4,19.4-4.6V267c-16.8,1.9-25.4,10.3-34.4,19.3c-9.6,9.5-20.5,20.3-45.7,26.1c-19.8,4.6-39,0.3-56.8-12.7    c-10.9-8-18.1-17-20.5-20.4V222.4z M334.7,243.3c-22.1,11.6-30.9,5.1-54.7-12.6c-7.7-5.7-16.3-12.2-27.2-19.3    c-26.1-17-48-15.1-61.8-10.4c-5.4,1.8-10,4.2-13.7,6.5v-75.5h157.4V243.3z M177.3,297.6c3.6,3.6,7.9,7.6,13.1,11.4    c15.3,11.3,32,17.1,49.2,17.1c5.9,0,11.8-0.7,17.8-2.1c28.4-6.6,41.2-19.2,51.4-29.3c8-7.9,14.1-14,25.9-15.7v100.8H177.3V297.6z     M192.4,109.1h127.2l8.7,11H183.7L192.4,109.1z M319.6,402.9H192.4l-8.7-11h144.6L319.6,402.9z"/></g></svg>