<?xml version="1.0" encoding="iso-8859-1"?>
<!-- Generator: Adobe Illustrator 19.0.0, SVG Export Plug-In . SVG Version: 6.00 Build 0)  -->
<svg version="1.1" id="Capa_1" xmlns="http://www.w3.org/2000/svg" xmlns:xlink="http://www.w3.org/1999/xlink" x="0px" y="0px"
	 viewBox="0 0 512 512" style="enable-background:new 0 0 512 512;" xml:space="preserve">
<g>
	<g>
		<path d="M492,38c-23.447,0-456.492,0-472,0C8.954,38,0,46.954,0,58s8.954,20,20,20h37.457l28.599,377.511
			C86.848,465.94,95.54,474,106,474h300c10.46,0,19.152-8.06,19.943-18.489l14.961-197.489c0.001-0.022,0.004-0.045,0.005-0.067
			L454.543,78H492c11.046,0,20-8.954,20-20S503.046,38,492,38z M387.458,434H124.542l-11.534-152.254
			c15.95,6.308,35.734,11.254,64.321,11.254c44.127,0,67.293-11.779,87.732-22.172C283.875,261.262,300.123,253,334.664,253
			c31.898,0,48.196,7.047,65.32,15.658L387.458,434z M403.216,225.992C386.537,218.879,365.832,213,334.664,213
			c-44.127,0-67.293,11.779-87.732,22.172C228.117,244.738,211.869,253,177.328,253c-33.421,0-49.715-7.736-67.779-16.903L97.572,78
			h316.855L403.216,225.992z"/>
	</g>
</g>
<g>
</g>
<g>
</g>
<g>
</g>
<g>
</g>
<g>
</g>
<g>
</g>
<g>
</g>
<g>
</g>
<g>
</g>
<g>
</g>
<g>
</g>
<g>
</g>
<g>
</g>
<g>
</g>
<g>
</g>
</svg>
