<svg id="Capa_1" enable-background="new 0 0 512 512" height="512" viewBox="0 0 512 512" width="512" xmlns="http://www.w3.org/2000/svg"><path d="m437.653 69.691c-191.971-18.481-331.917-68.732-333.309-69.238-3.9-1.416-8.211.595-9.629 4.496-1.418 3.9.594 8.211 4.495 9.629 1.117.406 90.501 32.52 224.264 55.1h-248.632c-12.746 0-23.116 10.37-23.116 23.116s10.37 23.116 23.116 23.116h3.352l33.577 333.982c1.367 13.593 12.317 23.967 25.788 24.746 3.565 21.175 22.018 37.362 44.191 37.362h148.5c22.173 0 40.625-16.187 44.19-37.361 13.471-.779 24.421-11.153 25.788-24.746l33.577-333.982h3.352c12.746 0 23.116-10.37 23.116-23.116 0-12.581-10.102-22.839-22.62-23.104zm-52.378 378.699c-.646 6.426-6.003 11.272-12.462 11.272h-148.784c-4.15 0-7.515 3.364-7.515 7.515s3.364 7.515 7.515 7.515h135.055c-3.339 12.802-15.001 22.28-28.834 22.28h-148.5c-13.834 0-25.495-9.477-28.834-22.28h41.055c4.15 0 7.515-3.365 7.515-7.515s-3.364-7.515-7.515-7.515h-54.784c-6.458 0-11.816-4.846-12.462-11.272l-9.623-95.713h68.537c16.005 32.169 42.031 51.218 70.36 51.218 10.36 0 20.478-2.532 30.076-7.525 3.682-1.915 5.113-6.453 3.198-10.134-1.916-3.682-6.452-5.114-10.135-3.198-7.434 3.867-15.22 5.828-23.14 5.828-23.532 0-45.5-17.496-58.765-46.802-1.217-2.688-3.895-4.416-6.846-4.416h-74.798l-10.813-107.552h85.611c2.951 0 5.629-1.727 6.846-4.416 13.264-29.306 35.232-46.802 58.765-46.802 23.532 0 45.5 17.496 58.764 46.802 1.217 2.688 3.895 4.416 6.846 4.416h85.611l-10.813 107.552h-74.796c-2.951 0-5.629 1.728-6.846 4.416-4.073 8.999-9.041 17.005-14.765 23.796-2.428 2.881-2.311 7.26.28 10 3.041 3.217 8.36 3.069 11.213-.314 5.65-6.704 10.638-14.38 14.867-22.869h68.538zm51.883-347.509h-225.752c-4.15 0-7.515 3.365-7.515 7.515s3.365 7.515 7.515 7.515h207.295l-9.969 99.156h-82.372c-16.005-32.169-42.031-51.218-70.36-51.218s-54.355 19.049-70.36 51.218h-82.372l-9.969-99.156h88.048c4.15 0 7.515-3.365 7.515-7.515s-3.365-7.515-7.515-7.515h-106.505c-4.459 0-8.087-3.628-8.087-8.086 0-4.459 3.628-8.087 8.087-8.087h362.315c4.459 0 8.087 3.628 8.087 8.087s-3.627 8.086-8.086 8.086z"/></svg>